<svg xmlns="http://www.w3.org/2000/svg" width="512" height="512" viewBox="0 0 512 512">
  <!-- Background circle -->
  <circle cx="256" cy="256" r="240" fill="#FFB9D2"/>
  
  <!-- Butterfly - scaled to fit -->
  <g transform="translate(96, 96) scale(13.3)">
    <!-- Left wing (orange) -->
    <path d="M12 12C12 12 5 14 3 9C1 4 6 2 9 5C10.5 6.5 12 12 12 12Z" fill="#FB923C"/>
    <path d="M12 12C12 12 5 14 3 9C1 4 6 2 9 5C10.5 6.5 12 12 12 12Z" fill="url(#grad1)" fill-opacity="0.6"/>
    
    <!-- Right wing (pink) -->
    <path d="M12 12C12 12 19 14 21 9C23 4 18 2 15 5C13.5 6.5 12 12 12 12Z" fill="#F472B6"/>
    
    <!-- Bottom left wing (green) -->
    <path d="M12 12C12 12 6 15 6 18C6 21 11 21 12 15" fill="#4ADE80"/>
    
    <!-- Bottom right wing (blue) -->
    <path d="M12 12C12 12 18 15 18 18C18 21 13 21 12 15" fill="#60A5FA"/>
    
    <!-- Body -->
    <path d="M12 4C11.5 4 11.5 5 12 5C12.5 5 12.5 4 12 4ZM12 6V18" stroke="#44403C" stroke-width="1.5" stroke-linecap="round"/>
    
    <!-- Antennae -->
    <path d="M12 5L10 3" stroke="#44403C" stroke-width="1.5" stroke-linecap="round"/>
    <path d="M12 5L14 3" stroke="#44403C" stroke-width="1.5" stroke-linecap="round"/>
  </g>
  
  <defs>
    <linearGradient id="grad1" x1="3" y1="2" x2="12" y2="12" gradientUnits="userSpaceOnUse">
      <stop stop-color="#F472B6"/>
      <stop offset="1" stop-color="#FB923C"/>
    </linearGradient>
  </defs>
</svg>
